<?xml version="1.0" standalone="no"?>
<!DOCTYPE svg PUBLIC "-//W3C//DTD SVG 20010904//EN"
 "http://www.w3.org/TR/2001/REC-SVG-20010904/DTD/svg10.dtd">
<svg version="1.0" xmlns="http://www.w3.org/2000/svg"
 width="460.000000pt" height="460.000000pt" viewBox="0 0 460.000000 460.000000"
 preserveAspectRatio="xMidYMid meet">
<metadata>
Created by potrace 1.11, written by Peter Selinger 2001-2013
</metadata>
<g transform="translate(0.000000,460.000000) scale(0.100000,-0.100000)"
fill="#000000" stroke="none">
<path d="M2533 4551 c-90 -36 -141 -48 -223 -56 -114 -10 -232 -26 -349 -46
-96 -17 -130 -29 -210 -70 -119 -61 -149 -83 -231 -164 -92 -92 -112 -119
-158 -221 -60 -129 -83 -264 -89 -519 -4 -195 1 -245 32 -317 6 -16 1 -18 -39
-18 -40 0 -48 -3 -58 -26 -18 -38 0 -58 55 -62 l45 -3 4 -332 c5 -324 5 -334
30 -402 14 -38 33 -92 43 -120 9 -27 23 -57 30 -65 7 -8 20 -31 30 -50 48 -97
170 -228 277 -297 64 -41 288 -133 325 -133 10 0 50 -7 88 -15 157 -33 449 -2
578 61 27 13 55 24 62 24 7 0 36 16 65 35 29 19 56 35 61 35 17 0 151 132 193
190 49 70 109 176 128 230 66 188 61 147 65 507 l5 332 45 3 c55 4 73 23 55
62 -10 23 -18 26 -58 26 l-46 0 6 88 c28 411 13 616 -58 775 -13 29 -26 59
-29 67 -3 8 -26 41 -51 72 -42 53 -93 99 -215 193 -54 42 -59 55 -36 95 8 14
14 37 15 53 0 33 -11 34 -100 7 -36 -11 -66 -20 -67 -20 0 0 1 18 4 40 7 48
-3 51 -64 16 -23 -14 -52 -27 -63 -31 -21 -7 -21 -6 -5 25 17 34 14 60 -7 60
-7 -1 -45 -13 -85 -29z m288 -537 c19 -25 61 -68 94 -96 33 -27 77 -63 98 -80
59 -49 107 -121 138 -210 32 -88 59 -224 59 -292 0 -55 27 -156 47 -178 15
-17 14 -18 -19 -18 -30 0 -40 6 -62 39 -53 75 -154 140 -253 161 -54 12 -308
8 -350 -5 -31 -10 -41 -45 -17 -64 18 -14 18 -15 -11 -45 -17 -17 -41 -46 -55
-65 l-26 -33 -29 24 c-91 76 -181 77 -271 3 l-31 -25 -46 60 c-26 33 -52 60
-58 60 -6 0 -1 8 11 18 33 27 20 59 -28 69 -20 4 -107 8 -192 8 -150 0 -157
-1 -220 -30 -76 -34 -127 -74 -172 -132 -26 -35 -38 -43 -65 -43 -37 0 -39 4
-20 46 8 16 22 83 31 149 11 72 31 158 52 216 19 53 34 99 34 103 0 23 89 152
138 200 31 31 73 74 92 96 80 91 24 81 485 86 226 2 437 8 470 12 128 19 137
17 176 -34z m-920 -776 c127 -62 201 -177 202 -313 1 -74 -25 -151 -67 -207
-36 -47 -119 -104 -171 -119 -111 -30 -229 -10 -310 53 -62 49 -85 78 -115
148 -47 108 -18 278 60 350 26 24 29 25 33 8 8 -29 48 -21 87 16 33 32 165 95
201 96 9 0 45 -14 80 -32z m967 1 c44 -17 92 -45 112 -65 39 -37 79 -45 87
-16 4 17 7 16 33 -8 15 -14 41 -55 56 -91 48 -113 32 -247 -40 -341 -36 -47
-119 -104 -171 -119 -111 -30 -229 -10 -310 53 -62 49 -85 78 -115 148 -50
116 -19 269 73 363 40 41 153 107 184 107 8 0 49 -14 91 -31z m-484 -149 c29
-29 31 -34 37 -147 5 -85 13 -133 29 -173 26 -65 95 -159 126 -170 12 -5 25
-14 29 -20 3 -5 23 -18 43 -28 114 -56 307 -53 396 7 21 14 49 32 61 38 26 15
99 107 114 143 11 28 7 -46 -10 -178 -11 -88 -62 -203 -112 -250 -43 -42 -180
-112 -218 -112 -30 0 -69 33 -69 59 0 35 -59 139 -97 171 -48 40 -159 79 -227
80 l-50 0 32 31 c18 17 32 40 32 50 0 18 -11 19 -200 19 -189 0 -200 -1 -200
-19 0 -10 14 -32 30 -48 l31 -30 -63 -6 c-83 -8 -164 -38 -212 -78 -36 -30
-96 -135 -96 -168 0 -25 -42 -61 -70 -61 -36 0 -170 68 -217 111 -52 47 -100
155 -112 249 -17 134 -21 208 -10 180 15 -36 88 -128 114 -143 12 -6 40 -24
61 -38 89 -60 282 -63 396 -7 20 10 40 23 43 28 4 6 17 15 29 20 36 13 104
112 131 189 21 60 25 89 24 166 -2 88 -1 96 25 129 47 62 122 65 180 6z m-51
-722 c12 -7 76 -15 142 -18 75 -4 131 -11 150 -20 43 -21 95 -127 95 -192 0
-116 -128 -268 -225 -268 -32 0 -47 6 -69 29 -60 63 -192 63 -252 0 -32 -33
-86 -39 -132 -15 -42 22 -107 96 -136 153 -37 74 -35 132 7 214 42 84 59 91
220 100 74 3 133 11 140 18 14 14 33 14 60 -1z"/>
<path d="M1791 3016 c-31 -17 -50 -53 -51 -94 0 -26 9 -43 34 -68 89 -89 219
14 161 127 -25 47 -93 63 -144 35z"/>
<path d="M2703 3020 c-26 -11 -53 -59 -53 -95 0 -36 28 -81 57 -94 45 -21 83
-13 119 23 87 87 -7 213 -123 166z"/>
<path d="M1985 2310 c-18 -20 -18 -23 -1 -87 25 -96 108 -184 210 -223 35 -13
177 -13 212 0 102 39 185 127 210 223 17 64 17 67 -1 87 -17 19 -29 20 -315
20 -286 0 -298 -1 -315 -20z m595 -6 c0 -8 -13 -29 -29 -45 l-29 -29 -212 0
-212 0 -29 29 c-60 60 -58 61 241 61 239 0 270 -2 270 -16z"/>
<path d="M1625 1394 c-163 -20 -356 -92 -505 -189 -84 -55 -220 -180 -297
-275 -47 -57 -113 -165 -113 -184 0 -23 284 -306 307 -306 6 0 16 -7 23 -15
15 -18 173 -125 185 -125 5 0 16 -6 24 -14 20 -18 231 -126 246 -126 6 0 35
-11 63 -25 29 -14 58 -25 64 -25 7 0 55 -13 106 -29 319 -101 825 -101 1144 0
51 16 99 29 106 29 6 0 35 11 64 25 28 14 57 25 63 25 15 0 226 108 246 126 8
8 19 14 24 14 12 0 170 107 185 125 7 8 17 15 23 15 22 0 307 282 307 305 0
22 -97 168 -158 237 -59 67 -189 182 -252 223 -65 42 -207 115 -223 115 -8 0
-39 11 -68 23 -71 31 -126 44 -224 52 l-80 7 -1 -59 c-1 -32 -9 -75 -17 -95
-17 -40 -85 -128 -100 -128 -4 0 -25 -14 -46 -30 -21 -17 -84 -47 -142 -67
-104 -37 -105 -37 -269 -37 -161 0 -167 1 -265 34 -89 30 -163 70 -218 118 -9
8 -34 40 -55 71 -32 48 -38 66 -42 126 l-5 71 -100 -12z m1067 -534 c45 -14
76 -31 102 -57 61 -61 78 -105 78 -194 0 -67 -5 -87 -35 -151 -55 -116 -150
-194 -204 -169 -28 13 -29 40 -4 73 35 44 36 74 6 103 -47 43 -84 30 -100 -37
-8 -32 -16 -44 -32 -46 -18 -3 -24 5 -35 44 -16 59 -39 75 -67 50 -34 -31 -42
-81 -30 -179 12 -94 4 -137 -25 -137 -21 0 -32 25 -46 100 -20 112 -40 168
-67 190 -43 33 -68 26 -92 -25 -12 -25 -25 -45 -30 -45 -5 0 -25 20 -45 45
-39 47 -64 55 -90 29 -35 -34 -12 -108 47 -154 15 -12 27 -30 27 -41 0 -16 -7
-19 -47 -19 -89 1 -178 55 -238 145 -32 49 -37 64 -37 114 0 57 10 87 60 177
25 46 141 155 194 183 64 34 78 26 78 -49 0 -72 10 -94 52 -116 29 -15 32 -15
51 4 16 16 20 33 19 80 -1 69 15 94 42 67 9 -9 16 -21 16 -26 0 -5 7 -9 15 -9
8 0 15 9 15 19 0 25 14 34 40 26 17 -5 20 -15 20 -65 0 -65 12 -80 65 -80 58
0 101 54 90 113 -9 54 13 69 91 62 28 -3 80 -14 116 -25z"/>
</g>
</svg>
